<?xml version="1.0" encoding="UTF-8"?>
<svg xmlns="http://www.w3.org/2000/svg" xmlns:xlink="http://www.w3.org/1999/xlink" width="360pt" height="126pt" viewBox="0 0 360 126" version="1.1">
<defs>
<g>
<symbol overflow="visible" id="glyph0-0">
<path style="stroke:none;" d=""/>
</symbol>
<symbol overflow="visible" id="glyph0-1">
<path style="stroke:none;" d="M 5.828125 -4.421875 C 5.5625 -5.828125 4.765625 -6.515625 3.359375 -6.515625 C 2.484375 -6.515625 1.796875 -6.25 1.3125 -5.71875 C 0.734375 -5.078125 0.421875 -4.171875 0.421875 -3.125 C 0.421875 -2.078125 0.75 -1.171875 1.34375 -0.546875 C 1.84375 -0.03125 2.484375 0.203125 3.3125 0.203125 C 4.875 0.203125 5.765625 -0.640625 5.953125 -2.34375 L 5.109375 -2.34375 C 5.046875 -1.90625 4.953125 -1.59375 4.828125 -1.34375 C 4.5625 -0.8125 4.015625 -0.515625 3.328125 -0.515625 C 2.046875 -0.515625 1.234375 -1.546875 1.234375 -3.140625 C 1.234375 -4.78125 2 -5.796875 3.25 -5.796875 C 3.78125 -5.796875 4.25 -5.640625 4.515625 -5.390625 C 4.765625 -5.171875 4.890625 -4.90625 4.984375 -4.421875 Z M 5.828125 -4.421875 "/>
</symbol>
<symbol overflow="visible" id="glyph0-2">
<path style="stroke:none;" d="M 0.78125 0 L 3.25 0 C 4.875 0 5.875 -1.21875 5.875 -3.203125 C 5.875 -5.203125 4.875 -6.40625 3.25 -6.40625 L 0.78125 -6.40625 Z M 1.59375 -0.71875 L 1.59375 -5.6875 L 3.109375 -5.6875 C 4.375 -5.6875 5.046875 -4.84375 5.046875 -3.203125 C 5.046875 -1.578125 4.375 -0.71875 3.109375 -0.71875 Z M 1.59375 -0.71875 "/>
</symbol>
<symbol overflow="visible" id="glyph0-3">
<path style="stroke:none;" d="M 4.859375 -6.40625 L 4.859375 -1.90625 C 4.859375 -1.046875 4.234375 -0.515625 3.203125 -0.515625 C 2.734375 -0.515625 2.34375 -0.640625 2.03125 -0.859375 C 1.71875 -1.09375 1.5625 -1.421875 1.5625 -1.90625 L 1.5625 -6.40625 L 0.75 -6.40625 L 0.75 -1.90625 C 0.75 -0.609375 1.6875 0.203125 3.203125 0.203125 C 4.703125 0.203125 5.671875 -0.625 5.671875 -1.90625 L 5.671875 -6.40625 Z M 4.859375 -6.40625 "/>
</symbol>
<symbol overflow="visible" id="glyph0-4">
<path style="stroke:none;" d="M 1.703125 -6.40625 L 0.875 -6.40625 L 0.875 0 L 1.703125 0 Z M 1.703125 -6.40625 "/>
</symbol>
<symbol overflow="visible" id="glyph0-5">
<path style="stroke:none;" d="M 0.6875 0 L 3.59375 0 C 4.203125 0 4.640625 -0.171875 4.984375 -0.53125 C 5.296875 -0.875 5.484375 -1.328125 5.484375 -1.828125 C 5.484375 -2.609375 5.125 -3.0625 4.3125 -3.390625 C 4.90625 -3.65625 5.203125 -4.125 5.203125 -4.78125 C 5.203125 -5.265625 5.015625 -5.671875 4.6875 -5.96875 C 4.34375 -6.265625 3.921875 -6.40625 3.296875 -6.40625 L 0.6875 -6.40625 Z M 1.515625 -3.65625 L 1.515625 -5.6875 L 3.09375 -5.6875 C 3.546875 -5.6875 3.8125 -5.625 4.03125 -5.46875 C 4.25 -5.28125 4.375 -5.015625 4.375 -4.671875 C 4.375 -4.3125 4.25 -4.0625 4.03125 -3.875 C 3.8125 -3.71875 3.546875 -3.65625 3.09375 -3.65625 Z M 1.515625 -0.71875 L 1.515625 -2.921875 L 3.515625 -2.921875 C 4.234375 -2.921875 4.65625 -2.515625 4.65625 -1.828125 C 4.65625 -1.140625 4.234375 -0.71875 3.515625 -0.71875 Z M 1.515625 -0.71875 "/>
</symbol>
<symbol overflow="visible" id="glyph0-6">
<path style="stroke:none;" d="M 5.25 -4.53125 C 5.25 -4.96875 5.21875 -5.09375 5.078125 -5.390625 C 4.71875 -6.125 3.96875 -6.515625 2.890625 -6.515625 C 1.484375 -6.515625 0.609375 -5.796875 0.609375 -4.640625 C 0.609375 -3.859375 1.03125 -3.359375 1.875 -3.140625 L 3.46875 -2.71875 C 4.28125 -2.5 4.640625 -2.1875 4.640625 -1.6875 C 4.640625 -1.34375 4.453125 -0.984375 4.1875 -0.796875 C 3.9375 -0.609375 3.53125 -0.515625 3.015625 -0.515625 C 2.3125 -0.515625 1.84375 -0.6875 1.53125 -1.0625 C 1.296875 -1.34375 1.1875 -1.640625 1.203125 -2.046875 L 0.421875 -2.046875 C 0.4375 -1.453125 0.546875 -1.0625 0.796875 -0.71875 C 1.234375 -0.109375 1.984375 0.203125 2.953125 0.203125 C 3.71875 0.203125 4.34375 0.03125 4.765625 -0.296875 C 5.1875 -0.640625 5.46875 -1.203125 5.46875 -1.765625 C 5.46875 -2.546875 4.96875 -3.125 4.09375 -3.375 L 2.484375 -3.796875 C 1.71875 -4.015625 1.4375 -4.25 1.4375 -4.75 C 1.4375 -5.40625 2 -5.828125 2.875 -5.828125 C 3.890625 -5.828125 4.453125 -5.375 4.46875 -4.53125 Z M 5.25 -4.53125 "/>
</symbol>
<symbol overflow="visible" id="glyph0-7">
<path style="stroke:none;" d="M 2.28125 -4.53125 L 2.28125 0 L 3.046875 0 L 3.046875 -6.359375 L 2.546875 -6.359375 C 2.265625 -5.390625 2.09375 -5.25 0.890625 -5.09375 L 0.890625 -4.53125 Z M 2.28125 -4.53125 "/>
</symbol>
<symbol overflow="visible" id="glyph0-8">
<path style="stroke:none;" d="M 4.453125 -0.765625 L 1.171875 -0.765625 C 1.25 -1.296875 1.53125 -1.625 2.296875 -2.09375 L 3.171875 -2.59375 C 4.046875 -3.0625 4.5 -3.71875 4.5 -4.5 C 4.5 -5.03125 4.28125 -5.53125 3.921875 -5.875 C 3.546875 -6.203125 3.09375 -6.359375 2.5 -6.359375 C 1.703125 -6.359375 1.125 -6.078125 0.78125 -5.53125 C 0.546875 -5.203125 0.453125 -4.796875 0.4375 -4.15625 L 1.21875 -4.15625 C 1.234375 -4.59375 1.296875 -4.84375 1.40625 -5.0625 C 1.59375 -5.4375 2 -5.6875 2.46875 -5.6875 C 3.171875 -5.6875 3.703125 -5.171875 3.703125 -4.484375 C 3.703125 -3.96875 3.40625 -3.53125 2.859375 -3.21875 L 2.046875 -2.75 C 0.75 -2 0.375 -1.40625 0.296875 -0.015625 L 4.453125 -0.015625 Z M 4.453125 -0.765625 "/>
</symbol>
<symbol overflow="visible" id="glyph0-9">
<path style="stroke:none;" d="M 1.9375 -2.921875 L 2.359375 -2.921875 C 3.203125 -2.921875 3.65625 -2.53125 3.65625 -1.765625 C 3.65625 -0.96875 3.171875 -0.484375 2.375 -0.484375 C 1.515625 -0.484375 1.109375 -0.921875 1.0625 -1.84375 L 0.28125 -1.84375 C 0.3125 -1.34375 0.40625 -1 0.546875 -0.71875 C 0.875 -0.109375 1.484375 0.203125 2.34375 0.203125 C 3.625 0.203125 4.453125 -0.578125 4.453125 -1.78125 C 4.453125 -2.59375 4.140625 -3.03125 3.390625 -3.296875 C 3.96875 -3.53125 4.265625 -3.96875 4.265625 -4.609375 C 4.265625 -5.703125 3.546875 -6.359375 2.359375 -6.359375 C 1.109375 -6.359375 0.4375 -5.65625 0.40625 -4.3125 L 1.1875 -4.3125 C 1.203125 -4.703125 1.234375 -4.921875 1.328125 -5.109375 C 1.5 -5.46875 1.890625 -5.6875 2.375 -5.6875 C 3.0625 -5.6875 3.46875 -5.265625 3.46875 -4.578125 C 3.46875 -4.140625 3.3125 -3.859375 2.96875 -3.71875 C 2.765625 -3.625 2.484375 -3.59375 1.9375 -3.578125 Z M 1.9375 -2.921875 "/>
</symbol>
<symbol overflow="visible" id="glyph0-10">
<path style="stroke:none;" d="M 2.875 -1.546875 L 2.875 0 L 3.65625 0 L 3.65625 -1.546875 L 4.578125 -1.546875 L 4.578125 -2.234375 L 3.65625 -2.234375 L 3.65625 -6.359375 L 3.078125 -6.359375 L 0.25 -2.359375 L 0.25 -1.546875 Z M 2.875 -2.234375 L 0.921875 -2.234375 L 2.875 -5.046875 Z M 2.875 -2.234375 "/>
</symbol>
<symbol overflow="visible" id="glyph0-11">
<path style="stroke:none;" d="M 4.1875 -6.234375 L 0.96875 -6.234375 L 0.5 -2.84375 L 1.21875 -2.84375 C 1.578125 -3.265625 1.875 -3.421875 2.359375 -3.421875 C 3.203125 -3.421875 3.71875 -2.84375 3.71875 -1.921875 C 3.71875 -1.03125 3.203125 -0.484375 2.359375 -0.484375 C 1.6875 -0.484375 1.265625 -0.828125 1.078125 -1.53125 L 0.3125 -1.53125 C 0.40625 -1.015625 0.5 -0.78125 0.6875 -0.546875 C 1.03125 -0.078125 1.671875 0.203125 2.375 0.203125 C 3.640625 0.203125 4.515625 -0.71875 4.515625 -2.03125 C 4.515625 -3.265625 3.6875 -4.109375 2.5 -4.109375 C 2.0625 -4.109375 1.703125 -4 1.34375 -3.734375 L 1.59375 -5.46875 L 4.1875 -5.46875 Z M 4.1875 -6.234375 "/>
</symbol>
<symbol overflow="visible" id="glyph1-0">
<path style="stroke:none;" d=""/>
</symbol>
<symbol overflow="visible" id="glyph1-1">
<path style="stroke:none;" d="M 2.796875 -5.765625 L 1.84375 -5.765625 L 1.84375 -7.34375 L 0.9375 -7.34375 L 0.9375 -5.765625 L 0.15625 -5.765625 L 0.15625 -5.015625 L 0.9375 -5.015625 L 0.9375 -0.65625 C 0.9375 -0.0625 1.328125 0.25 2.046875 0.25 C 2.28125 0.25 2.484375 0.234375 2.796875 0.171875 L 2.796875 -0.59375 C 2.65625 -0.5625 2.546875 -0.546875 2.359375 -0.546875 C 1.953125 -0.546875 1.84375 -0.65625 1.84375 -1.0625 L 1.84375 -5.015625 L 2.796875 -5.015625 Z M 2.796875 -5.765625 "/>
</symbol>
<symbol overflow="visible" id="glyph1-2">
<path style="stroke:none;" d="M 1.65625 -5.765625 L 0.734375 -5.765625 L 0.734375 0 L 1.65625 0 Z M 1.65625 -8.015625 L 0.71875 -8.015625 L 0.71875 -6.859375 L 1.65625 -6.859375 Z M 1.65625 -8.015625 "/>
</symbol>
<symbol overflow="visible" id="glyph1-3">
<path style="stroke:none;" d="M 0.765625 -5.765625 L 0.765625 0 L 1.6875 0 L 1.6875 -3.625 C 1.6875 -4.453125 2.296875 -5.125 3.046875 -5.125 C 3.734375 -5.125 4.109375 -4.703125 4.109375 -3.96875 L 4.109375 0 L 5.03125 0 L 5.03125 -3.625 C 5.03125 -4.453125 5.640625 -5.125 6.390625 -5.125 C 7.0625 -5.125 7.453125 -4.703125 7.453125 -3.96875 L 7.453125 0 L 8.375 0 L 8.375 -4.328125 C 8.375 -5.359375 7.78125 -5.921875 6.703125 -5.921875 C 5.9375 -5.921875 5.484375 -5.703125 4.9375 -5.046875 C 4.59375 -5.671875 4.140625 -5.921875 3.390625 -5.921875 C 2.625 -5.921875 2.09375 -5.640625 1.609375 -4.953125 L 1.609375 -5.765625 Z M 0.765625 -5.765625 "/>
</symbol>
<symbol overflow="visible" id="glyph1-4">
<path style="stroke:none;" d="M 5.640625 -2.578125 C 5.640625 -3.453125 5.578125 -3.984375 5.40625 -4.40625 C 5.03125 -5.359375 4.15625 -5.921875 3.078125 -5.921875 C 1.46875 -5.921875 0.4375 -4.703125 0.4375 -2.8125 C 0.4375 -0.90625 1.4375 0.25 3.0625 0.25 C 4.375 0.25 5.296875 -0.5 5.515625 -1.75 L 4.59375 -1.75 C 4.34375 -0.984375 3.828125 -0.59375 3.09375 -0.59375 C 2.515625 -0.59375 2.015625 -0.859375 1.703125 -1.34375 C 1.484375 -1.671875 1.40625 -2 1.390625 -2.578125 Z M 1.421875 -3.328125 C 1.5 -4.390625 2.140625 -5.078125 3.0625 -5.078125 C 4 -5.078125 4.65625 -4.359375 4.65625 -3.328125 Z M 1.421875 -3.328125 "/>
</symbol>
<symbol overflow="visible" id="glyph1-5">
<path style="stroke:none;" d=""/>
</symbol>
<symbol overflow="visible" id="glyph1-6">
<path style="stroke:none;" d="M 0.59375 2.390625 L 1.515625 2.390625 L 1.515625 -0.609375 C 2 -0.015625 2.546875 0.25 3.28125 0.25 C 4.78125 0.25 5.75 -0.953125 5.75 -2.78125 C 5.75 -4.71875 4.8125 -5.921875 3.28125 -5.921875 C 2.5 -5.921875 1.875 -5.578125 1.4375 -4.890625 L 1.4375 -5.765625 L 0.59375 -5.765625 Z M 3.125 -5.078125 C 4.140625 -5.078125 4.796875 -4.1875 4.796875 -2.8125 C 4.796875 -1.5 4.125 -0.609375 3.125 -0.609375 C 2.140625 -0.609375 1.515625 -1.484375 1.515625 -2.84375 C 1.515625 -4.1875 2.140625 -5.078125 3.125 -5.078125 Z M 3.125 -5.078125 "/>
</symbol>
<symbol overflow="visible" id="glyph1-7">
<path style="stroke:none;" d="M 2.984375 -5.921875 C 1.359375 -5.921875 0.390625 -4.78125 0.390625 -2.84375 C 0.390625 -0.890625 1.359375 0.25 3 0.25 C 4.625 0.25 5.609375 -0.90625 5.609375 -2.796875 C 5.609375 -4.796875 4.65625 -5.921875 2.984375 -5.921875 Z M 3 -5.078125 C 4.03125 -5.078125 4.65625 -4.234375 4.65625 -2.8125 C 4.65625 -1.4375 4.015625 -0.59375 3 -0.59375 C 1.984375 -0.59375 1.359375 -1.4375 1.359375 -2.84375 C 1.359375 -4.234375 1.984375 -5.078125 3 -5.078125 Z M 3 -5.078125 "/>
</symbol>
<symbol overflow="visible" id="glyph1-8">
<path style="stroke:none;" d="M 0.765625 -5.765625 L 0.765625 0 L 1.6875 0 L 1.6875 -3.171875 C 1.6875 -4.359375 2.3125 -5.125 3.25 -5.125 C 3.984375 -5.125 4.4375 -4.6875 4.4375 -4 L 4.4375 0 L 5.359375 0 L 5.359375 -4.359375 C 5.359375 -5.3125 4.640625 -5.921875 3.53125 -5.921875 C 2.671875 -5.921875 2.125 -5.59375 1.609375 -4.796875 L 1.609375 -5.765625 Z M 0.765625 -5.765625 "/>
</symbol>
<symbol overflow="visible" id="glyph1-9">
<path style="stroke:none;" d="M 5.4375 -8.015625 L 4.53125 -8.015625 L 4.53125 -5.03125 C 4.140625 -5.625 3.53125 -5.921875 2.765625 -5.921875 C 1.265625 -5.921875 0.28125 -4.734375 0.28125 -2.890625 C 0.28125 -0.953125 1.234375 0.25 2.796875 0.25 C 3.59375 0.25 4.140625 -0.046875 4.625 -0.765625 L 4.625 0 L 5.4375 0 Z M 2.921875 -5.078125 C 3.90625 -5.078125 4.53125 -4.203125 4.53125 -2.8125 C 4.53125 -1.484375 3.890625 -0.609375 2.921875 -0.609375 C 1.90625 -0.609375 1.25 -1.5 1.25 -2.84375 C 1.25 -4.1875 1.90625 -5.078125 2.921875 -5.078125 Z M 2.921875 -5.078125 "/>
</symbol>
<symbol overflow="visible" id="glyph1-10">
<path style="stroke:none;" d="M 4.8125 -4.15625 C 4.8125 -5.296875 4.0625 -5.921875 2.734375 -5.921875 C 1.390625 -5.921875 0.515625 -5.234375 0.515625 -4.171875 C 0.515625 -3.265625 0.984375 -2.84375 2.34375 -2.515625 L 3.203125 -2.296875 C 3.84375 -2.140625 4.09375 -1.90625 4.09375 -1.5 C 4.09375 -0.953125 3.546875 -0.59375 2.75 -0.59375 C 2.25 -0.59375 1.84375 -0.734375 1.609375 -0.984375 C 1.46875 -1.140625 1.390625 -1.3125 1.34375 -1.71875 L 0.375 -1.71875 C 0.421875 -0.390625 1.171875 0.25 2.671875 0.25 C 4.125 0.25 5.046875 -0.46875 5.046875 -1.578125 C 5.046875 -2.4375 4.5625 -2.90625 3.421875 -3.171875 L 2.546875 -3.390625 C 1.796875 -3.5625 1.46875 -3.8125 1.46875 -4.21875 C 1.46875 -4.75 1.953125 -5.078125 2.6875 -5.078125 C 3.4375 -5.078125 3.828125 -4.765625 3.84375 -4.15625 Z M 4.8125 -4.15625 "/>
</symbol>
<symbol overflow="visible" id="glyph1-11">
<path style="stroke:none;" d="M 5.890625 -0.53125 C 5.78125 -0.515625 5.734375 -0.515625 5.6875 -0.515625 C 5.375 -0.515625 5.1875 -0.6875 5.1875 -0.96875 L 5.1875 -4.359375 C 5.1875 -5.375 4.4375 -5.921875 3.03125 -5.921875 C 2.171875 -5.921875 1.5 -5.6875 1.109375 -5.265625 C 0.84375 -4.96875 0.734375 -4.625 0.71875 -4.0625 L 1.640625 -4.0625 C 1.71875 -4.765625 2.140625 -5.078125 2.984375 -5.078125 C 3.828125 -5.078125 4.28125 -4.78125 4.28125 -4.21875 L 4.28125 -3.984375 C 4.265625 -3.59375 4.0625 -3.4375 3.328125 -3.34375 C 2.03125 -3.171875 1.828125 -3.140625 1.46875 -2.984375 C 0.796875 -2.703125 0.46875 -2.203125 0.46875 -1.453125 C 0.46875 -0.40625 1.1875 0.25 2.359375 0.25 C 3.078125 0.25 3.65625 0 4.3125 -0.59375 C 4.375 0 4.65625 0.25 5.265625 0.25 C 5.453125 0.25 5.578125 0.234375 5.890625 0.15625 Z M 4.28125 -1.8125 C 4.28125 -1.5 4.1875 -1.3125 3.921875 -1.0625 C 3.546875 -0.71875 3.09375 -0.546875 2.546875 -0.546875 C 1.84375 -0.546875 1.421875 -0.890625 1.421875 -1.46875 C 1.421875 -2.078125 1.8125 -2.390625 2.8125 -2.53125 C 3.78125 -2.65625 3.96875 -2.703125 4.28125 -2.84375 Z M 4.28125 -1.8125 "/>
</symbol>
<symbol overflow="visible" id="glyph2-0">
<path style="stroke:none;" d=""/>
</symbol>
<symbol overflow="visible" id="glyph2-1">
<path style="stroke:none;" d="M -5.671875 -6.5625 C -6.21875 -6.5625 -6.375 -6.515625 -6.75 -6.34375 C -7.671875 -5.90625 -8.15625 -4.96875 -8.15625 -3.625 C -8.15625 -1.859375 -7.25 -0.765625 -5.796875 -0.765625 C -4.8125 -0.765625 -4.203125 -1.28125 -3.921875 -2.34375 L -3.40625 -4.328125 C -3.140625 -5.359375 -2.734375 -5.8125 -2.09375 -5.8125 C -1.671875 -5.8125 -1.234375 -5.578125 -0.984375 -5.234375 C -0.765625 -4.921875 -0.65625 -4.40625 -0.65625 -3.765625 C -0.65625 -2.875 -0.859375 -2.296875 -1.3125 -1.90625 C -1.671875 -1.609375 -2.0625 -1.484375 -2.546875 -1.5 L -2.546875 -0.53125 C -1.8125 -0.53125 -1.328125 -0.6875 -0.890625 -1 C -0.125 -1.546875 0.25 -2.46875 0.25 -3.703125 C 0.25 -4.65625 0.03125 -5.4375 -0.359375 -5.953125 C -0.796875 -6.484375 -1.5 -6.828125 -2.203125 -6.828125 C -3.1875 -6.828125 -3.921875 -6.21875 -4.21875 -5.125 L -4.75 -3.109375 C -5.015625 -2.140625 -5.328125 -1.796875 -5.9375 -1.796875 C -6.75 -1.796875 -7.296875 -2.515625 -7.296875 -3.59375 C -7.296875 -4.859375 -6.71875 -5.578125 -5.671875 -5.59375 Z M -5.671875 -6.5625 "/>
</symbol>
<symbol overflow="visible" id="glyph2-2">
<path style="stroke:none;" d="M -8.015625 -0.765625 L 0 -0.765625 L 0 -1.6875 L -3.171875 -1.6875 C -4.359375 -1.6875 -5.125 -2.296875 -5.125 -3.25 C -5.125 -3.546875 -5.03125 -3.84375 -4.875 -4.0625 C -4.671875 -4.328125 -4.40625 -4.4375 -4 -4.4375 L 0 -4.4375 L 0 -5.34375 L -4.359375 -5.34375 C -5.328125 -5.34375 -5.921875 -4.65625 -5.921875 -3.53125 C -5.921875 -2.71875 -5.671875 -2.21875 -4.96875 -1.6875 L -8.015625 -1.6875 Z M -8.015625 -0.765625 "/>
</symbol>
<symbol overflow="visible" id="glyph2-3">
<path style="stroke:none;" d="M -0.53125 -5.890625 C -0.515625 -5.78125 -0.515625 -5.734375 -0.515625 -5.6875 C -0.515625 -5.375 -0.6875 -5.1875 -0.96875 -5.1875 L -4.359375 -5.1875 C -5.375 -5.1875 -5.921875 -4.4375 -5.921875 -3.03125 C -5.921875 -2.171875 -5.6875 -1.5 -5.265625 -1.109375 C -4.96875 -0.84375 -4.625 -0.734375 -4.0625 -0.71875 L -4.0625 -1.640625 C -4.765625 -1.71875 -5.078125 -2.140625 -5.078125 -2.984375 C -5.078125 -3.828125 -4.78125 -4.28125 -4.21875 -4.28125 L -3.984375 -4.28125 C -3.59375 -4.265625 -3.4375 -4.0625 -3.34375 -3.328125 C -3.171875 -2.03125 -3.140625 -1.828125 -2.984375 -1.46875 C -2.703125 -0.796875 -2.203125 -0.46875 -1.453125 -0.46875 C -0.40625 -0.46875 0.25 -1.1875 0.25 -2.359375 C 0.25 -3.078125 0 -3.65625 -0.59375 -4.3125 C 0 -4.375 0.25 -4.65625 0.25 -5.265625 C 0.25 -5.453125 0.234375 -5.578125 0.15625 -5.890625 Z M -1.8125 -4.28125 C -1.5 -4.28125 -1.3125 -4.1875 -1.0625 -3.921875 C -0.71875 -3.546875 -0.546875 -3.09375 -0.546875 -2.546875 C -0.546875 -1.84375 -0.890625 -1.421875 -1.46875 -1.421875 C -2.078125 -1.421875 -2.390625 -1.8125 -2.53125 -2.8125 C -2.65625 -3.78125 -2.703125 -3.96875 -2.84375 -4.28125 Z M -1.8125 -4.28125 "/>
</symbol>
<symbol overflow="visible" id="glyph2-4">
<path style="stroke:none;" d="M -5.765625 -0.765625 L 0 -0.765625 L 0 -1.6875 L -3.171875 -1.6875 C -4.359375 -1.6875 -5.125 -2.3125 -5.125 -3.25 C -5.125 -3.984375 -4.6875 -4.4375 -4 -4.4375 L 0 -4.4375 L 0 -5.359375 L -4.359375 -5.359375 C -5.3125 -5.359375 -5.921875 -4.640625 -5.921875 -3.53125 C -5.921875 -2.671875 -5.59375 -2.125 -4.796875 -1.609375 L -5.765625 -1.609375 Z M -5.765625 -0.765625 "/>
</symbol>
<symbol overflow="visible" id="glyph2-5">
<path style="stroke:none;" d="M -5.921875 -2.984375 C -5.921875 -1.359375 -4.78125 -0.390625 -2.84375 -0.390625 C -0.890625 -0.390625 0.25 -1.359375 0.25 -3 C 0.25 -4.625 -0.90625 -5.609375 -2.796875 -5.609375 C -4.796875 -5.609375 -5.921875 -4.65625 -5.921875 -2.984375 Z M -5.078125 -3 C -5.078125 -4.03125 -4.234375 -4.65625 -2.8125 -4.65625 C -1.4375 -4.65625 -0.59375 -4.015625 -0.59375 -3 C -0.59375 -1.984375 -1.4375 -1.359375 -2.84375 -1.359375 C -4.234375 -1.359375 -5.078125 -1.984375 -5.078125 -3 Z M -5.078125 -3 "/>
</symbol>
<symbol overflow="visible" id="glyph2-6">
<path style="stroke:none;" d=""/>
</symbol>
<symbol overflow="visible" id="glyph2-7">
<path style="stroke:none;" d="M -5.765625 -1.65625 L -5.765625 -0.734375 L 0 -0.734375 L 0 -1.65625 Z M -8.015625 -1.65625 L -8.015625 -0.71875 L -6.859375 -0.71875 L -6.859375 -1.65625 Z M -8.015625 -1.65625 "/>
</symbol>
<symbol overflow="visible" id="glyph2-8">
<path style="stroke:none;" d="M -8.015625 -5.4375 L -8.015625 -4.53125 L -5.03125 -4.53125 C -5.625 -4.140625 -5.921875 -3.53125 -5.921875 -2.765625 C -5.921875 -1.265625 -4.734375 -0.28125 -2.890625 -0.28125 C -0.953125 -0.28125 0.25 -1.234375 0.25 -2.796875 C 0.25 -3.59375 -0.046875 -4.140625 -0.765625 -4.625 L 0 -4.625 L 0 -5.4375 Z M -5.078125 -2.921875 C -5.078125 -3.90625 -4.203125 -4.53125 -2.8125 -4.53125 C -1.484375 -4.53125 -0.609375 -3.890625 -0.609375 -2.921875 C -0.609375 -1.90625 -1.5 -1.25 -2.84375 -1.25 C -4.1875 -1.25 -5.078125 -1.90625 -5.078125 -2.921875 Z M -5.078125 -2.921875 "/>
</symbol>
<symbol overflow="visible" id="glyph2-9">
<path style="stroke:none;" d="M -2.578125 -5.640625 C -3.453125 -5.640625 -3.984375 -5.578125 -4.40625 -5.40625 C -5.359375 -5.03125 -5.921875 -4.15625 -5.921875 -3.078125 C -5.921875 -1.46875 -4.703125 -0.4375 -2.8125 -0.4375 C -0.90625 -0.4375 0.25 -1.4375 0.25 -3.0625 C 0.25 -4.375 -0.5 -5.296875 -1.75 -5.515625 L -1.75 -4.59375 C -0.984375 -4.34375 -0.59375 -3.828125 -0.59375 -3.09375 C -0.59375 -2.515625 -0.859375 -2.015625 -1.34375 -1.703125 C -1.671875 -1.484375 -2 -1.40625 -2.578125 -1.390625 Z M -3.328125 -1.421875 C -4.390625 -1.5 -5.078125 -2.140625 -5.078125 -3.0625 C -5.078125 -4 -4.359375 -4.65625 -3.328125 -4.65625 Z M -3.328125 -1.421875 "/>
</symbol>
<symbol overflow="visible" id="glyph2-10">
<path style="stroke:none;" d="M -2.984375 -3.21875 L -5.765625 -5.140625 L -5.765625 -4.109375 L -3.671875 -2.734375 L -5.765625 -1.34375 L -5.765625 -0.296875 L -2.9375 -2.21875 L 0 -0.1875 L 0 -1.234375 L -2.21875 -2.6875 L 0 -4.140625 L 0 -5.203125 Z M -2.984375 -3.21875 "/>
</symbol>
</g>
<clipPath id="clip1">
  <path d="M 30.152344 23.246094 L 115.0625 23.246094 L 115.0625 91.847656 L 30.152344 91.847656 Z M 30.152344 23.246094 "/>
</clipPath>
<clipPath id="clip2">
  <path d="M 30.152344 23.246094 L 115.0625 23.246094 L 115.0625 91.847656 L 30.152344 91.847656 Z M 30.152344 23.246094 "/>
</clipPath>
<clipPath id="clip3">
  <path d="M 120.542969 23.246094 L 205.453125 23.246094 L 205.453125 91.847656 L 120.542969 91.847656 Z M 120.542969 23.246094 "/>
</clipPath>
<clipPath id="clip4">
  <path d="M 120.542969 23.246094 L 205.453125 23.246094 L 205.453125 91.847656 L 120.542969 91.847656 Z M 120.542969 23.246094 "/>
</clipPath>
<clipPath id="clip5">
  <path d="M 210.933594 23.246094 L 295.84375 23.246094 L 295.84375 91.847656 L 210.933594 91.847656 Z M 210.933594 23.246094 "/>
</clipPath>
<clipPath id="clip6">
  <path d="M 210.933594 23.246094 L 295.84375 23.246094 L 295.84375 91.847656 L 210.933594 91.847656 Z M 210.933594 23.246094 "/>
</clipPath>
<clipPath id="clip7">
  <path d="M 30.152344 5.480469 L 115.0625 5.480469 L 115.0625 23.246094 L 30.152344 23.246094 Z M 30.152344 5.480469 "/>
</clipPath>
<clipPath id="clip8">
  <path d="M 120.542969 5.480469 L 205.453125 5.480469 L 205.453125 23.246094 L 120.542969 23.246094 Z M 120.542969 5.480469 "/>
</clipPath>
<clipPath id="clip9">
  <path d="M 210.933594 5.480469 L 295.84375 5.480469 L 295.84375 23.246094 L 210.933594 23.246094 Z M 210.933594 5.480469 "/>
</clipPath>
</defs>
<g id="surface13094">
<rect x="0" y="0" width="360" height="126" style="fill:rgb(100%,100%,100%);fill-opacity:1;stroke:none;"/>
<rect x="0" y="0" width="360" height="126" style="fill:rgb(100%,100%,100%);fill-opacity:1;stroke:none;"/>
<path style="fill:none;stroke-width:1.066978;stroke-linecap:round;stroke-linejoin:round;stroke:rgb(100%,100%,100%);stroke-opacity:1;stroke-miterlimit:10;" d="M 0 126 L 360 126 L 360 0 L 0 0 Z M 0 126 "/>
<g clip-path="url(#clip1)" clip-rule="nonzero">
<path style=" stroke:none;fill-rule:nonzero;fill:rgb(100%,100%,100%);fill-opacity:1;" d="M 30.152344 91.847656 L 115.0625 91.847656 L 115.0625 23.246094 L 30.152344 23.246094 Z M 30.152344 91.847656 "/>
</g>
<path style="fill:none;stroke-width:2.133957;stroke-linecap:butt;stroke-linejoin:round;stroke:rgb(89.411765%,10.196078%,10.980392%);stroke-opacity:0.329412;stroke-miterlimit:10;" d="M 34.011719 32.785156 L 53.308594 34.457031 "/>
<path style="fill:none;stroke-width:2.133957;stroke-linecap:butt;stroke-linejoin:round;stroke:rgb(89.411765%,10.196078%,10.980392%);stroke-opacity:0.329412;stroke-miterlimit:10;" d="M 34.011719 30.179688 L 53.308594 55.542969 L 72.605469 51.085938 "/>
<path style="fill:none;stroke-width:2.133957;stroke-linecap:butt;stroke-linejoin:round;stroke:rgb(89.411765%,10.196078%,10.980392%);stroke-opacity:0.329412;stroke-miterlimit:10;" d="M 34.011719 47.503906 L 72.605469 70.640625 L 91.90625 42.3125 "/>
<path style="fill:none;stroke-width:2.133957;stroke-linecap:butt;stroke-linejoin:round;stroke:rgb(89.411765%,10.196078%,10.980392%);stroke-opacity:0.329412;stroke-miterlimit:10;" d="M 34.011719 45.269531 L 53.308594 41.507812 L 72.605469 37.585938 "/>
<path style="fill:none;stroke-width:2.133957;stroke-linecap:butt;stroke-linejoin:round;stroke:rgb(89.411765%,10.196078%,10.980392%);stroke-opacity:0.329412;stroke-miterlimit:10;" d="M 34.011719 46.015625 L 53.308594 50.652344 L 91.90625 59.277344 "/>
<path style="fill:none;stroke-width:2.133957;stroke-linecap:butt;stroke-linejoin:round;stroke:rgb(89.411765%,10.196078%,10.980392%);stroke-opacity:0.329412;stroke-miterlimit:10;" d="M 34.011719 40.980469 L 53.308594 39.457031 L 72.605469 88.730469 L 91.90625 47.546875 "/>
<path style="fill:none;stroke-width:2.133957;stroke-linecap:butt;stroke-linejoin:round;stroke:rgb(89.411765%,10.196078%,10.980392%);stroke-opacity:0.329412;stroke-miterlimit:10;" d="M 34.011719 50.621094 L 53.308594 71.371094 L 91.90625 30.480469 L 111.203125 49.328125 "/>
<path style="fill:none;stroke-width:2.133957;stroke-linecap:butt;stroke-linejoin:round;stroke:rgb(89.411765%,10.196078%,10.980392%);stroke-opacity:0.329412;stroke-miterlimit:10;" d="M 34.011719 69.757812 L 53.308594 44.078125 L 72.605469 44.554688 "/>
<path style="fill:none;stroke-width:2.133957;stroke-linecap:butt;stroke-linejoin:round;stroke:rgb(89.411765%,10.196078%,10.980392%);stroke-opacity:1;stroke-miterlimit:10;" d="M 34.011719 45.390625 L 34.988281 45.472656 L 35.964844 45.582031 L 36.941406 45.710938 L 37.917969 45.863281 L 38.894531 46.027344 L 39.871094 46.203125 L 40.851562 46.386719 L 41.828125 46.578125 L 43.78125 46.96875 L 44.757812 47.15625 L 45.734375 47.339844 L 46.710938 47.511719 L 47.691406 47.667969 L 48.667969 47.808594 L 49.644531 47.929688 L 50.621094 48.027344 L 51.597656 48.101562 L 52.574219 48.140625 L 53.550781 48.15625 L 54.53125 48.277344 L 55.507812 48.542969 L 56.484375 48.9375 L 57.460938 49.445312 L 58.4375 50.042969 L 59.414062 50.722656 L 60.390625 51.457031 L 61.371094 52.234375 L 62.347656 53.035156 L 63.324219 53.839844 L 64.300781 54.636719 L 65.277344 55.40625 L 66.253906 56.128906 L 67.230469 56.789062 L 68.210938 57.371094 L 69.1875 57.851562 L 70.164062 58.21875 L 71.140625 58.453125 L 72.117188 58.539062 L 73.09375 58.46875 L 74.070312 58.3125 L 75.050781 58.089844 L 76.027344 57.804688 L 77.003906 57.46875 L 77.980469 57.082031 L 78.957031 56.65625 L 79.933594 56.195312 L 80.910156 55.707031 L 81.890625 55.199219 L 82.867188 54.675781 L 84.820312 53.613281 L 85.796875 53.089844 L 86.773438 52.574219 L 87.75 52.082031 L 88.730469 51.609375 L 89.707031 51.171875 L 90.683594 50.773438 L 91.660156 50.421875 L 92.636719 50.105469 L 93.613281 49.785156 L 94.589844 49.460938 L 95.570312 49.132812 L 97.523438 48.460938 L 98.5 48.117188 L 99.476562 47.769531 L 100.453125 47.417969 L 101.429688 47.058594 L 102.410156 46.695312 L 103.386719 46.328125 L 104.363281 45.953125 L 105.339844 45.574219 L 106.316406 45.1875 L 107.292969 44.796875 L 108.269531 44.398438 L 109.25 43.992188 L 110.226562 43.582031 L 111.203125 43.164062 "/>
<g clip-path="url(#clip2)" clip-rule="nonzero">
<path style="fill:none;stroke-width:1.066978;stroke-linecap:round;stroke-linejoin:round;stroke:rgb(20%,20%,20%);stroke-opacity:1;stroke-miterlimit:10;" d="M 30.152344 91.847656 L 115.0625 91.847656 L 115.0625 23.246094 L 30.152344 23.246094 Z M 30.152344 91.847656 "/>
</g>
<g clip-path="url(#clip3)" clip-rule="nonzero">
<path style=" stroke:none;fill-rule:nonzero;fill:rgb(100%,100%,100%);fill-opacity:1;" d="M 120.542969 91.847656 L 205.453125 91.847656 L 205.453125 23.246094 L 120.542969 23.246094 Z M 120.542969 91.847656 "/>
</g>
<path style="fill:none;stroke-width:2.133957;stroke-linecap:butt;stroke-linejoin:round;stroke:rgb(21.568627%,49.411765%,72.156863%);stroke-opacity:0.329412;stroke-miterlimit:10;" d="M 124.402344 53.121094 L 143.699219 59.296875 L 162.996094 31.542969 L 182.296875 46.71875 L 201.59375 38.589844 "/>
<path style="fill:none;stroke-width:2.133957;stroke-linecap:butt;stroke-linejoin:round;stroke:rgb(21.568627%,49.411765%,72.156863%);stroke-opacity:0.329412;stroke-miterlimit:10;" d="M 124.402344 52.6875 L 143.699219 60.03125 L 162.996094 37.875 L 182.296875 43.246094 L 201.59375 36.054688 "/>
<path style="fill:none;stroke-width:2.133957;stroke-linecap:butt;stroke-linejoin:round;stroke:rgb(21.568627%,49.411765%,72.156863%);stroke-opacity:0.329412;stroke-miterlimit:10;" d="M 124.402344 51.164062 L 162.996094 51.527344 L 201.59375 49.851562 "/>
<path style="fill:none;stroke-width:2.133957;stroke-linecap:butt;stroke-linejoin:round;stroke:rgb(21.568627%,49.411765%,72.156863%);stroke-opacity:0.329412;stroke-miterlimit:10;" d="M 124.402344 46.144531 L 143.699219 72.082031 L 162.996094 47.316406 L 182.296875 45.449219 "/>
<path style="fill:none;stroke-width:2.133957;stroke-linecap:butt;stroke-linejoin:round;stroke:rgb(21.568627%,49.411765%,72.156863%);stroke-opacity:0.329412;stroke-miterlimit:10;" d="M 124.402344 26.558594 L 143.699219 26.363281 L 162.996094 31.984375 L 182.296875 35.085938 "/>
<path style="fill:none;stroke-width:2.133957;stroke-linecap:butt;stroke-linejoin:round;stroke:rgb(21.568627%,49.411765%,72.156863%);stroke-opacity:0.329412;stroke-miterlimit:10;" d="M 124.402344 73.929688 L 143.699219 57.179688 L 162.996094 84.910156 "/>
<path style="fill:none;stroke-width:2.133957;stroke-linecap:butt;stroke-linejoin:round;stroke:rgb(21.568627%,49.411765%,72.156863%);stroke-opacity:0.329412;stroke-miterlimit:10;" d="M 124.402344 32.199219 L 143.699219 33.015625 L 162.996094 37.714844 "/>
<path style="fill:none;stroke-width:2.133957;stroke-linecap:butt;stroke-linejoin:round;stroke:rgb(21.568627%,49.411765%,72.156863%);stroke-opacity:1;stroke-miterlimit:10;" d="M 124.402344 47.972656 L 125.378906 48.074219 L 126.355469 48.207031 L 127.332031 48.363281 L 128.308594 48.546875 L 129.285156 48.746094 L 130.261719 48.960938 L 131.242188 49.1875 L 132.21875 49.417969 L 133.195312 49.652344 L 134.171875 49.890625 L 135.148438 50.117188 L 136.125 50.339844 L 137.101562 50.546875 L 138.082031 50.742188 L 139.058594 50.914062 L 140.035156 51.058594 L 141.011719 51.179688 L 141.988281 51.265625 L 142.964844 51.316406 L 143.941406 51.324219 L 144.921875 51.285156 L 145.898438 51.191406 L 146.875 51.050781 L 147.851562 50.867188 L 148.828125 50.644531 L 149.804688 50.390625 L 150.78125 50.109375 L 151.761719 49.804688 L 152.738281 49.480469 L 153.714844 49.140625 L 154.691406 48.792969 L 156.644531 48.089844 L 157.621094 47.742188 L 158.601562 47.402344 L 159.578125 47.078125 L 160.554688 46.773438 L 161.53125 46.492188 L 162.507812 46.238281 L 163.484375 46.015625 L 164.460938 45.796875 L 165.441406 45.582031 L 166.417969 45.371094 L 167.394531 45.164062 L 168.371094 44.960938 L 169.347656 44.761719 L 170.324219 44.566406 L 171.300781 44.375 L 172.28125 44.1875 L 173.257812 44.007812 L 174.234375 43.832031 L 175.210938 43.660156 L 176.1875 43.496094 L 177.164062 43.339844 L 178.140625 43.1875 L 179.121094 43.042969 L 180.097656 42.90625 L 181.074219 42.777344 L 182.050781 42.652344 L 183.027344 42.539062 L 184.003906 42.429688 L 184.980469 42.324219 L 185.960938 42.226562 L 186.9375 42.136719 L 187.914062 42.050781 L 188.890625 41.972656 L 189.867188 41.898438 L 190.84375 41.832031 L 191.820312 41.773438 L 192.800781 41.71875 L 193.777344 41.667969 L 194.753906 41.625 L 195.730469 41.589844 L 196.707031 41.558594 L 197.683594 41.535156 L 198.660156 41.515625 L 199.640625 41.503906 L 200.617188 41.5 L 201.59375 41.5 "/>
<g clip-path="url(#clip4)" clip-rule="nonzero">
<path style="fill:none;stroke-width:1.066978;stroke-linecap:round;stroke-linejoin:round;stroke:rgb(20%,20%,20%);stroke-opacity:1;stroke-miterlimit:10;" d="M 120.542969 91.847656 L 205.453125 91.847656 L 205.453125 23.246094 L 120.542969 23.246094 Z M 120.542969 91.847656 "/>
</g>
<g clip-path="url(#clip5)" clip-rule="nonzero">
<path style=" stroke:none;fill-rule:nonzero;fill:rgb(100%,100%,100%);fill-opacity:1;" d="M 210.933594 91.847656 L 295.84375 91.847656 L 295.84375 23.246094 L 210.933594 23.246094 Z M 210.933594 91.847656 "/>
</g>
<path style="fill:none;stroke-width:2.133957;stroke-linecap:butt;stroke-linejoin:round;stroke:rgb(30.196078%,68.627451%,29.019608%);stroke-opacity:0.329412;stroke-miterlimit:10;" d="M 214.792969 29.433594 L 234.089844 29.578125 L 253.386719 68.664062 L 291.984375 34.636719 "/>
<path style="fill:none;stroke-width:2.133957;stroke-linecap:butt;stroke-linejoin:round;stroke:rgb(30.196078%,68.627451%,29.019608%);stroke-opacity:0.329412;stroke-miterlimit:10;" d="M 214.792969 29.734375 L 234.089844 32.71875 L 253.386719 31.023438 L 272.6875 40.128906 "/>
<path style="fill:none;stroke-width:2.133957;stroke-linecap:butt;stroke-linejoin:round;stroke:rgb(30.196078%,68.627451%,29.019608%);stroke-opacity:0.329412;stroke-miterlimit:10;" d="M 214.792969 51.660156 L 234.089844 40.5 L 253.386719 33.554688 "/>
<path style="fill:none;stroke-width:2.133957;stroke-linecap:butt;stroke-linejoin:round;stroke:rgb(30.196078%,68.627451%,29.019608%);stroke-opacity:1;stroke-miterlimit:10;" d="M 214.792969 36.941406 L 215.769531 36.863281 L 216.746094 36.757812 L 217.722656 36.628906 L 218.699219 36.484375 L 219.675781 36.324219 L 220.65625 36.15625 L 221.632812 35.976562 L 224.5625 35.414062 L 225.539062 35.230469 L 226.515625 35.054688 L 227.496094 34.886719 L 228.472656 34.734375 L 229.449219 34.597656 L 230.425781 34.480469 L 231.402344 34.386719 L 232.378906 34.316406 L 233.355469 34.277344 L 234.332031 34.269531 L 235.3125 34.371094 L 236.289062 34.597656 L 237.265625 34.933594 L 238.242188 35.367188 L 239.21875 35.882812 L 240.195312 36.472656 L 241.171875 37.113281 L 242.152344 37.800781 L 243.128906 38.515625 L 245.082031 39.984375 L 246.058594 40.707031 L 247.035156 41.40625 L 248.011719 42.066406 L 248.992188 42.675781 L 249.96875 43.21875 L 250.945312 43.683594 L 251.921875 44.054688 L 252.898438 44.324219 L 253.875 44.480469 L 254.851562 44.558594 L 255.832031 44.574219 L 256.808594 44.535156 L 257.785156 44.441406 L 258.761719 44.300781 L 259.738281 44.117188 L 260.714844 43.894531 L 261.691406 43.640625 L 262.671875 43.359375 L 263.648438 43.054688 L 264.625 42.738281 L 265.601562 42.40625 L 267.554688 41.726562 L 268.53125 41.390625 L 269.511719 41.066406 L 270.488281 40.753906 L 271.464844 40.460938 L 272.441406 40.191406 L 274.394531 39.691406 L 275.371094 39.4375 L 276.351562 39.179688 L 277.328125 38.917969 L 279.28125 38.386719 L 280.257812 38.117188 L 281.234375 37.84375 L 282.210938 37.566406 L 283.191406 37.289062 L 284.167969 37.007812 L 285.144531 36.722656 L 286.121094 36.433594 L 288.074219 35.847656 L 289.050781 35.546875 L 290.03125 35.246094 L 291.007812 34.945312 L 291.984375 34.636719 "/>
<g clip-path="url(#clip6)" clip-rule="nonzero">
<path style="fill:none;stroke-width:1.066978;stroke-linecap:round;stroke-linejoin:round;stroke:rgb(20%,20%,20%);stroke-opacity:1;stroke-miterlimit:10;" d="M 210.933594 91.847656 L 295.84375 91.847656 L 295.84375 23.246094 L 210.933594 23.246094 Z M 210.933594 91.847656 "/>
</g>
<g clip-path="url(#clip7)" clip-rule="nonzero">
<path style="fill-rule:nonzero;fill:rgb(85.098039%,85.098039%,85.098039%);fill-opacity:1;stroke-width:1.066978;stroke-linecap:round;stroke-linejoin:round;stroke:rgb(20%,20%,20%);stroke-opacity:1;stroke-miterlimit:10;" d="M 30.152344 23.246094 L 115.0625 23.246094 L 115.0625 5.480469 L 30.152344 5.480469 Z M 30.152344 23.246094 "/>
</g>
<g style="fill:rgb(10.196078%,10.196078%,10.196078%);fill-opacity:1;">
  <use xlink:href="#glyph0-1" x="66.605469" y="17.27832"/>
  <use xlink:href="#glyph0-2" x="72.605469" y="17.27832"/>
</g>
<g clip-path="url(#clip8)" clip-rule="nonzero">
<path style="fill-rule:nonzero;fill:rgb(85.098039%,85.098039%,85.098039%);fill-opacity:1;stroke-width:1.066978;stroke-linecap:round;stroke-linejoin:round;stroke:rgb(20%,20%,20%);stroke-opacity:1;stroke-miterlimit:10;" d="M 120.542969 23.246094 L 205.453125 23.246094 L 205.453125 5.480469 L 120.542969 5.480469 Z M 120.542969 23.246094 "/>
</g>
<g style="fill:rgb(10.196078%,10.196078%,10.196078%);fill-opacity:1;">
  <use xlink:href="#glyph0-3" x="156.996094" y="17.27832"/>
  <use xlink:href="#glyph0-1" x="162.996094" y="17.27832"/>
</g>
<g clip-path="url(#clip9)" clip-rule="nonzero">
<path style="fill-rule:nonzero;fill:rgb(85.098039%,85.098039%,85.098039%);fill-opacity:1;stroke-width:1.066978;stroke-linecap:round;stroke-linejoin:round;stroke:rgb(20%,20%,20%);stroke-opacity:1;stroke-miterlimit:10;" d="M 210.933594 23.246094 L 295.84375 23.246094 L 295.84375 5.480469 L 210.933594 5.480469 Z M 210.933594 23.246094 "/>
</g>
<g style="fill:rgb(10.196078%,10.196078%,10.196078%);fill-opacity:1;">
  <use xlink:href="#glyph0-4" x="246.386719" y="17.27832"/>
  <use xlink:href="#glyph0-5" x="248.386719" y="17.27832"/>
  <use xlink:href="#glyph0-6" x="254.386719" y="17.27832"/>
</g>
<path style="fill:none;stroke-width:1.066978;stroke-linecap:butt;stroke-linejoin:round;stroke:rgb(20%,20%,20%);stroke-opacity:1;stroke-miterlimit:10;" d="M 34.011719 94.589844 L 34.011719 91.847656 "/>
<path style="fill:none;stroke-width:1.066978;stroke-linecap:butt;stroke-linejoin:round;stroke:rgb(20%,20%,20%);stroke-opacity:1;stroke-miterlimit:10;" d="M 53.308594 94.589844 L 53.308594 91.847656 "/>
<path style="fill:none;stroke-width:1.066978;stroke-linecap:butt;stroke-linejoin:round;stroke:rgb(20%,20%,20%);stroke-opacity:1;stroke-miterlimit:10;" d="M 72.605469 94.589844 L 72.605469 91.847656 "/>
<path style="fill:none;stroke-width:1.066978;stroke-linecap:butt;stroke-linejoin:round;stroke:rgb(20%,20%,20%);stroke-opacity:1;stroke-miterlimit:10;" d="M 91.90625 94.589844 L 91.90625 91.847656 "/>
<path style="fill:none;stroke-width:1.066978;stroke-linecap:butt;stroke-linejoin:round;stroke:rgb(20%,20%,20%);stroke-opacity:1;stroke-miterlimit:10;" d="M 111.203125 94.589844 L 111.203125 91.847656 "/>
<g style="fill:rgb(30.196078%,30.196078%,30.196078%);fill-opacity:1;">
  <use xlink:href="#glyph0-7" x="31.511719" y="103.196289"/>
</g>
<g style="fill:rgb(30.196078%,30.196078%,30.196078%);fill-opacity:1;">
  <use xlink:href="#glyph0-8" x="50.808594" y="103.196289"/>
</g>
<g style="fill:rgb(30.196078%,30.196078%,30.196078%);fill-opacity:1;">
  <use xlink:href="#glyph0-9" x="70.105469" y="103.196289"/>
</g>
<g style="fill:rgb(30.196078%,30.196078%,30.196078%);fill-opacity:1;">
  <use xlink:href="#glyph0-10" x="89.40625" y="103.196289"/>
</g>
<g style="fill:rgb(30.196078%,30.196078%,30.196078%);fill-opacity:1;">
  <use xlink:href="#glyph0-11" x="108.703125" y="103.196289"/>
</g>
<path style="fill:none;stroke-width:1.066978;stroke-linecap:butt;stroke-linejoin:round;stroke:rgb(20%,20%,20%);stroke-opacity:1;stroke-miterlimit:10;" d="M 124.402344 94.589844 L 124.402344 91.847656 "/>
<path style="fill:none;stroke-width:1.066978;stroke-linecap:butt;stroke-linejoin:round;stroke:rgb(20%,20%,20%);stroke-opacity:1;stroke-miterlimit:10;" d="M 143.699219 94.589844 L 143.699219 91.847656 "/>
<path style="fill:none;stroke-width:1.066978;stroke-linecap:butt;stroke-linejoin:round;stroke:rgb(20%,20%,20%);stroke-opacity:1;stroke-miterlimit:10;" d="M 162.996094 94.589844 L 162.996094 91.847656 "/>
<path style="fill:none;stroke-width:1.066978;stroke-linecap:butt;stroke-linejoin:round;stroke:rgb(20%,20%,20%);stroke-opacity:1;stroke-miterlimit:10;" d="M 182.296875 94.589844 L 182.296875 91.847656 "/>
<path style="fill:none;stroke-width:1.066978;stroke-linecap:butt;stroke-linejoin:round;stroke:rgb(20%,20%,20%);stroke-opacity:1;stroke-miterlimit:10;" d="M 201.59375 94.589844 L 201.59375 91.847656 "/>
<g style="fill:rgb(30.196078%,30.196078%,30.196078%);fill-opacity:1;">
  <use xlink:href="#glyph0-7" x="121.902344" y="103.196289"/>
</g>
<g style="fill:rgb(30.196078%,30.196078%,30.196078%);fill-opacity:1;">
  <use xlink:href="#glyph0-8" x="141.199219" y="103.196289"/>
</g>
<g style="fill:rgb(30.196078%,30.196078%,30.196078%);fill-opacity:1;">
  <use xlink:href="#glyph0-9" x="160.496094" y="103.196289"/>
</g>
<g style="fill:rgb(30.196078%,30.196078%,30.196078%);fill-opacity:1;">
  <use xlink:href="#glyph0-10" x="179.796875" y="103.196289"/>
</g>
<g style="fill:rgb(30.196078%,30.196078%,30.196078%);fill-opacity:1;">
  <use xlink:href="#glyph0-11" x="199.09375" y="103.196289"/>
</g>
<path style="fill:none;stroke-width:1.066978;stroke-linecap:butt;stroke-linejoin:round;stroke:rgb(20%,20%,20%);stroke-opacity:1;stroke-miterlimit:10;" d="M 214.792969 94.589844 L 214.792969 91.847656 "/>
<path style="fill:none;stroke-width:1.066978;stroke-linecap:butt;stroke-linejoin:round;stroke:rgb(20%,20%,20%);stroke-opacity:1;stroke-miterlimit:10;" d="M 234.089844 94.589844 L 234.089844 91.847656 "/>
<path style="fill:none;stroke-width:1.066978;stroke-linecap:butt;stroke-linejoin:round;stroke:rgb(20%,20%,20%);stroke-opacity:1;stroke-miterlimit:10;" d="M 253.386719 94.589844 L 253.386719 91.847656 "/>
<path style="fill:none;stroke-width:1.066978;stroke-linecap:butt;stroke-linejoin:round;stroke:rgb(20%,20%,20%);stroke-opacity:1;stroke-miterlimit:10;" d="M 272.6875 94.589844 L 272.6875 91.847656 "/>
<path style="fill:none;stroke-width:1.066978;stroke-linecap:butt;stroke-linejoin:round;stroke:rgb(20%,20%,20%);stroke-opacity:1;stroke-miterlimit:10;" d="M 291.984375 94.589844 L 291.984375 91.847656 "/>
<g style="fill:rgb(30.196078%,30.196078%,30.196078%);fill-opacity:1;">
  <use xlink:href="#glyph0-7" x="212.292969" y="103.196289"/>
</g>
<g style="fill:rgb(30.196078%,30.196078%,30.196078%);fill-opacity:1;">
  <use xlink:href="#glyph0-8" x="231.589844" y="103.196289"/>
</g>
<g style="fill:rgb(30.196078%,30.196078%,30.196078%);fill-opacity:1;">
  <use xlink:href="#glyph0-9" x="250.886719" y="103.196289"/>
</g>
<g style="fill:rgb(30.196078%,30.196078%,30.196078%);fill-opacity:1;">
  <use xlink:href="#glyph0-10" x="270.1875" y="103.196289"/>
</g>
<g style="fill:rgb(30.196078%,30.196078%,30.196078%);fill-opacity:1;">
  <use xlink:href="#glyph0-11" x="289.484375" y="103.196289"/>
</g>
<g style="fill:rgb(30.196078%,30.196078%,30.196078%);fill-opacity:1;">
  <use xlink:href="#glyph0-7" x="20.21875" y="77.37207"/>
</g>
<g style="fill:rgb(30.196078%,30.196078%,30.196078%);fill-opacity:1;">
  <use xlink:href="#glyph0-8" x="20.21875" y="56.106445"/>
</g>
<g style="fill:rgb(30.196078%,30.196078%,30.196078%);fill-opacity:1;">
  <use xlink:href="#glyph0-9" x="20.21875" y="34.84082"/>
</g>
<path style="fill:none;stroke-width:1.066978;stroke-linecap:butt;stroke-linejoin:round;stroke:rgb(20%,20%,20%);stroke-opacity:1;stroke-miterlimit:10;" d="M 27.410156 74.457031 L 30.152344 74.457031 "/>
<path style="fill:none;stroke-width:1.066978;stroke-linecap:butt;stroke-linejoin:round;stroke:rgb(20%,20%,20%);stroke-opacity:1;stroke-miterlimit:10;" d="M 27.410156 53.191406 L 30.152344 53.191406 "/>
<path style="fill:none;stroke-width:1.066978;stroke-linecap:butt;stroke-linejoin:round;stroke:rgb(20%,20%,20%);stroke-opacity:1;stroke-miterlimit:10;" d="M 27.410156 31.925781 L 30.152344 31.925781 "/>
<g style="fill:rgb(0%,0%,0%);fill-opacity:1;">
  <use xlink:href="#glyph1-1" x="139.996094" y="116.538086"/>
  <use xlink:href="#glyph1-2" x="142.996094" y="116.538086"/>
  <use xlink:href="#glyph1-3" x="144.996094" y="116.538086"/>
  <use xlink:href="#glyph1-4" x="153.996094" y="116.538086"/>
  <use xlink:href="#glyph1-5" x="159.996094" y="116.538086"/>
  <use xlink:href="#glyph1-6" x="162.996094" y="116.538086"/>
  <use xlink:href="#glyph1-7" x="168.996094" y="116.538086"/>
  <use xlink:href="#glyph1-2" x="174.996094" y="116.538086"/>
  <use xlink:href="#glyph1-8" x="176.996094" y="116.538086"/>
  <use xlink:href="#glyph1-1" x="182.996094" y="116.538086"/>
</g>
<g style="fill:rgb(0%,0%,0%);fill-opacity:1;">
  <use xlink:href="#glyph2-1" x="13.499023" y="93.046875"/>
  <use xlink:href="#glyph2-2" x="13.499023" y="86.046875"/>
  <use xlink:href="#glyph2-3" x="13.499023" y="80.046875"/>
  <use xlink:href="#glyph2-4" x="13.499023" y="74.046875"/>
  <use xlink:href="#glyph2-4" x="13.499023" y="68.046875"/>
  <use xlink:href="#glyph2-5" x="13.499023" y="62.046875"/>
  <use xlink:href="#glyph2-4" x="13.499023" y="56.046875"/>
  <use xlink:href="#glyph2-6" x="13.499023" y="50.046875"/>
  <use xlink:href="#glyph2-7" x="13.499023" y="47.046875"/>
  <use xlink:href="#glyph2-4" x="13.499023" y="45.046875"/>
  <use xlink:href="#glyph2-8" x="13.499023" y="39.046875"/>
  <use xlink:href="#glyph2-9" x="13.499023" y="33.046875"/>
  <use xlink:href="#glyph2-10" x="13.499023" y="27.046875"/>
</g>
<path style=" stroke:none;fill-rule:nonzero;fill:rgb(100%,100%,100%);fill-opacity:1;" d="M 306.800781 97.6875 L 354.519531 97.6875 L 354.519531 17.410156 L 306.800781 17.410156 Z M 306.800781 97.6875 "/>
<g style="fill:rgb(0%,0%,0%);fill-opacity:1;">
  <use xlink:href="#glyph1-9" x="312.28125" y="32.405273"/>
  <use xlink:href="#glyph1-2" x="318.28125" y="32.405273"/>
  <use xlink:href="#glyph1-10" x="320.28125" y="32.405273"/>
  <use xlink:href="#glyph1-4" x="325.28125" y="32.405273"/>
  <use xlink:href="#glyph1-11" x="331.28125" y="32.405273"/>
  <use xlink:href="#glyph1-10" x="337.28125" y="32.405273"/>
  <use xlink:href="#glyph1-4" x="342.28125" y="32.405273"/>
</g>
<path style=" stroke:none;fill-rule:nonzero;fill:rgb(100%,100%,100%);fill-opacity:1;" d="M 312.28125 57.648438 L 329.5625 57.648438 L 329.5625 40.367188 L 312.28125 40.367188 Z M 312.28125 57.648438 "/>
<path style="fill:none;stroke-width:2.133957;stroke-linecap:butt;stroke-linejoin:round;stroke:rgb(89.411765%,10.196078%,10.980392%);stroke-opacity:0.329412;stroke-miterlimit:10;" d="M 314.007812 49.007812 L 327.832031 49.007812 "/>
<path style="fill:none;stroke-width:2.133957;stroke-linecap:butt;stroke-linejoin:round;stroke:rgb(89.411765%,10.196078%,10.980392%);stroke-opacity:1;stroke-miterlimit:10;" d="M 314.007812 49.007812 L 327.832031 49.007812 "/>
<path style=" stroke:none;fill-rule:nonzero;fill:rgb(100%,100%,100%);fill-opacity:1;" d="M 312.28125 74.925781 L 329.5625 74.925781 L 329.5625 57.644531 L 312.28125 57.644531 Z M 312.28125 74.925781 "/>
<path style="fill:none;stroke-width:2.133957;stroke-linecap:butt;stroke-linejoin:round;stroke:rgb(21.568627%,49.411765%,72.156863%);stroke-opacity:0.329412;stroke-miterlimit:10;" d="M 314.007812 66.289062 L 327.832031 66.289062 "/>
<path style="fill:none;stroke-width:2.133957;stroke-linecap:butt;stroke-linejoin:round;stroke:rgb(21.568627%,49.411765%,72.156863%);stroke-opacity:1;stroke-miterlimit:10;" d="M 314.007812 66.289062 L 327.832031 66.289062 "/>
<path style=" stroke:none;fill-rule:nonzero;fill:rgb(100%,100%,100%);fill-opacity:1;" d="M 312.28125 92.207031 L 329.5625 92.207031 L 329.5625 74.925781 L 312.28125 74.925781 Z M 312.28125 92.207031 "/>
<path style="fill:none;stroke-width:2.133957;stroke-linecap:butt;stroke-linejoin:round;stroke:rgb(30.196078%,68.627451%,29.019608%);stroke-opacity:0.329412;stroke-miterlimit:10;" d="M 314.007812 83.566406 L 327.832031 83.566406 "/>
<path style="fill:none;stroke-width:2.133957;stroke-linecap:butt;stroke-linejoin:round;stroke:rgb(30.196078%,68.627451%,29.019608%);stroke-opacity:1;stroke-miterlimit:10;" d="M 314.007812 83.566406 L 327.832031 83.566406 "/>
<g style="fill:rgb(0%,0%,0%);fill-opacity:1;">
  <use xlink:href="#glyph0-1" x="335.042969" y="51.922852"/>
  <use xlink:href="#glyph0-2" x="341.042969" y="51.922852"/>
</g>
<g style="fill:rgb(0%,0%,0%);fill-opacity:1;">
  <use xlink:href="#glyph0-3" x="335.042969" y="69.204102"/>
  <use xlink:href="#glyph0-1" x="341.042969" y="69.204102"/>
</g>
<g style="fill:rgb(0%,0%,0%);fill-opacity:1;">
  <use xlink:href="#glyph0-4" x="335.042969" y="86.481445"/>
  <use xlink:href="#glyph0-5" x="337.042969" y="86.481445"/>
  <use xlink:href="#glyph0-6" x="343.042969" y="86.481445"/>
</g>
</g>
</svg>
